<?xml version="1.0" encoding="utf-8"?>
<!-- Generator: Adobe Illustrator 16.0.0, SVG Export Plug-In . SVG Version: 6.00 Build 0)  -->
<!DOCTYPE svg PUBLIC "-//W3C//DTD SVG 1.1//EN" "http://www.w3.org/Graphics/SVG/1.1/DTD/svg11.dtd">
<svg version="1.1" id="圖層_1" xmlns="http://www.w3.org/2000/svg" xmlns:xlink="http://www.w3.org/1999/xlink" x="0px" y="0px"
	 width="2509.5px" height="802px" viewBox="-9.5 -11.5 2509.5 802" enable-background="new -9.5 -11.5 2509.5 802"
	 xml:space="preserve">
<path fill="#FFFFFF" d="M1317.56,195.987c0,28.11-22.65,50.745-50.761,50.745c-28.111,0-50.746-22.635-50.746-50.745
	c0-28.111,21.863-50.746,50.746-50.746C1295.705,146.021,1317.56,168.664,1317.56,195.987z M1108.306,298.274v12.495
	c0,0-24.195-31.247-75.729-31.247c-85.096,0-151.473,64.81-151.473,154.594c0,89.012,65.597,154.593,151.473,154.593
	c52.314,0,75.729-32.011,75.729-32.011v13.268c0,6.248,4.696,10.92,10.936,10.92h63.234V287.308h-63.234
	C1113.001,287.331,1108.305,292.806,1108.306,298.274L1108.306,298.274z M1108.306,486.43c-11.7,17.183-35.131,32.019-63.233,32.019
	c-49.966,0-88.232-31.23-88.232-84.332c0-53.094,38.267-84.324,88.232-84.324c27.33,0,52.313,15.615,63.233,32.011V486.43z
	 M1229.328,287.331h74.948v293.578h-74.948V287.331L1229.328,287.331z M2348.957,279.515c-51.534,0-75.744,31.247-75.744,31.247
	V146.021h-74.949v434.889h63.249c6.247,0,10.92-5.468,10.92-10.936v-13.268c0,0,24.21,32.011,75.729,32.011
	c85.112,0,151.473-65.565,151.473-154.577S2433.273,279.516,2348.957,279.515L2348.957,279.515z M2336.461,517.66
	c-28.898,0-51.533-14.819-63.248-32.011V381.022c11.715-15.615,36.697-32.011,63.248-32.011c49.967,0,88.225,31.23,88.225,84.324
	S2386.435,517.66,2336.461,517.66z M2159.233,406.801v174.889h-74.964V415.381c0-48.397-15.616-67.929-57.75-67.929
	c-22.636,0-46.066,11.715-60.925,28.898v204.566h-74.933V287.339h59.316c6.248,0,10.936,5.467,10.936,10.936v12.495
	c21.863-22.651,50.746-31.247,79.629-31.247c32.799,0,60.129,9.384,81.992,28.119
	C2149.07,329.505,2159.233,357.607,2159.233,406.801L2159.233,406.801z M1708.715,279.515c-51.519,0-75.729,31.247-75.729,31.247
	V146.021h-74.949v434.889h63.232c6.248,0,10.936-5.468,10.936-10.936v-13.268c0,0,24.211,32.011,75.729,32.011
	c85.112,0,151.473-65.565,151.473-154.577C1860.187,345.12,1793.826,279.516,1708.715,279.515L1708.715,279.515z M1696.219,517.66
	c-28.883,0-51.518-14.819-63.232-32.011V381.022c11.715-15.615,36.697-32.011,63.232-32.011c49.982,0,88.232,31.23,88.232,84.324
	S1746.201,517.66,1696.219,517.66z M1493.228,279.515c22.636,0,34.351,3.916,34.351,3.916v69.481c0,0-62.461-21.083-101.491,23.431
	v205.338h-74.965v-294.35h63.249c6.248,0,10.92,5.467,10.92,10.935v12.495C1439.362,294.358,1469.813,279.515,1493.228,279.515
	L1493.228,279.515z M714.811,554.358c-3.899-9.367-7.807-19.516-11.707-28.111c-6.256-14.047-12.503-27.33-17.955-39.817l-0.78-0.78
	C630.487,368.526,572.721,249.86,511.813,132.753l-2.34-4.695c-6.406-12.148-12.649-24.382-18.728-36.698
	c-7.815-14.063-15.615-28.883-28.11-42.946C437.651,17.183,401.733,0,363.482,0c-39.046,0-74.176,17.183-99.932,46.846
	c-11.715,14.048-20.311,28.883-28.11,42.946c-6.094,12.309-12.337,24.542-18.728,36.698l-2.348,4.695
	C154.244,248.292,95.69,366.967,41.817,484.081l-0.788,1.553c-5.46,12.511-11.716,25.778-17.963,39.818
	c-3.9,8.596-7.8,17.963-11.7,28.11c-10.155,28.883-13.283,56.214-9.367,84.332c8.587,58.562,47.618,107.731,101.499,129.61
	C123.801,776.101,144.884,780,166.739,780c6.247,0,14.048-0.779,20.303-1.567c25.771-3.12,52.313-11.7,78.085-26.535
	c32.01-17.963,62.461-43.718,96.811-81.196c34.351,37.479,65.582,63.233,96.813,81.196c25.777,14.835,52.313,23.415,78.076,26.535
	c6.248,0.795,14.063,1.567,20.311,1.567c21.863,0,43.719-3.899,63.233-12.495c54.661-21.879,92.911-71.829,101.507-129.61
	C728.078,610.572,724.958,583.257,714.811,554.358L714.811,554.358z M362.695,594.956c-42.166-53.093-69.497-103.059-78.856-145.209
	c-3.9-17.963-4.688-33.578-2.34-47.634c1.552-12.495,6.247-23.431,12.495-32.798c14.835-21.067,39.818-34.351,68.709-34.351
	c28.898,0,54.661,12.495,68.717,34.351c6.247,9.367,10.927,20.311,12.502,32.798c2.333,14.063,1.553,30.45-2.348,47.634
	C432.176,491.117,404.846,541.091,362.695,594.956z M674.205,631.655c-5.46,40.598-32.791,75.744-71.041,91.359
	c-18.735,7.8-39.046,10.147-59.334,7.8c-19.515-2.348-39.046-8.596-59.333-20.295c-28.11-15.631-56.214-39.818-89.012-75.744
	c51.526-63.233,82.757-121.022,94.472-172.54c5.468-24.211,6.256-46.066,3.9-66.377c-3.112-19.516-10.148-37.479-21.075-53.094
	c-24.219-35.146-64.825-55.434-110.095-55.434c-45.271,0-85.877,21.083-110.08,55.434c-10.927,15.615-17.963,33.578-21.082,53.094
	c-3.12,20.311-2.348,42.945,3.899,66.377c11.708,51.518,43.718,110.078,94.464,173.319c-32.011,35.918-60.901,60.129-89.012,75.744
	c-20.303,11.716-39.811,17.963-59.325,20.296c-21.075,2.348-41.386-0.78-59.342-7.8c-38.25-15.616-65.581-50.762-71.041-91.36
	c-2.34-19.516-0.788-39.03,7.028-60.893c2.332-7.816,6.247-15.616,10.147-24.983c5.468-12.495,11.699-25.778,17.955-39.046
	l0.788-1.553c53.865-116.343,111.639-235.018,171.76-350.564l2.34-4.695c6.256-11.699,12.504-24.194,18.744-35.91
	c6.247-12.495,13.267-24.211,21.862-34.366c16.396-18.72,38.251-28.883,62.461-28.883c24.211,0,46.066,10.163,62.462,28.883
	c8.595,10.179,15.615,21.895,21.862,34.366c6.256,11.716,12.503,24.211,18.735,35.91l2.348,4.695
	C528.867,271.423,585.873,388.559,640.65,506.74v0.78c6.256,12.511,11.716,26.55,17.963,39.061
	c3.9,9.353,7.809,17.152,10.148,24.968C674.993,591.828,677.333,611.359,674.205,631.655L674.205,631.655z"/>
</svg>
